<?xml version="1.0" encoding="UTF-8" standalone="no"?>
<!DOCTYPE svg PUBLIC "-//W3C//DTD SVG 1.1//EN" "http://www.w3.org/Graphics/SVG/1.1/DTD/svg11.dtd">
<svg width="1097.00" height="901.00" viewBox="0.00 0.00 1097.00 901.00" xmlns="http://www.w3.org/2000/svg" xmlns:xlink="http://www.w3.org/1999/xlink">
<g stroke-linecap="round" transform="translate(-257.00, -98.00)" id="Layer_2">
<path d="M795.32,213.29 C799.37,213.31 818.37,214.53 826.12,215.35 C833.84,216.36 852.62,219.61 856.56,220.54 C860.50,221.47 878.76,226.98 886.14,229.53 C893.45,232.27 911.04,239.70 914.68,241.50 C918.32,243.31 934.92,252.82 941.55,256.99 C948.08,261.32 963.61,272.56 966.77,275.14 C969.92,277.73 984.03,290.77 989.59,296.34 C995.01,302.05 1007.70,316.53 1010.22,319.76 C1012.73,323.00 1023.64,338.92 1027.84,345.61 C1031.88,352.41 1041.10,369.41 1042.84,373.13 C1044.58,376.86 1051.75,394.86 1054.39,402.33 C1056.84,409.88 1062.12,428.54 1063.01,432.57 C1063.89,436.60 1066.95,455.77 1067.89,463.66 C1068.64,471.57 1069.72,490.97 1069.71,495.10 C1069.69,499.23 1068.49,518.62 1067.69,526.52 C1066.69,534.41 1063.51,553.56 1062.60,557.58 C1061.68,561.60 1056.28,580.24 1053.78,587.76 C1051.09,595.22 1043.81,613.18 1042.04,616.89 C1040.27,620.60 1030.94,637.54 1026.86,644.31 C1022.61,650.97 1011.60,666.82 1009.07,670.04 C1006.53,673.26 993.74,687.66 988.29,693.33 C982.69,698.86 968.50,711.81 965.33,714.38 C962.16,716.94 946.55,728.08 939.99,732.37 C933.33,736.49 916.67,745.89 913.02,747.67 C909.37,749.45 891.72,756.76 884.40,759.46 C877.00,761.96 858.71,767.35 854.76,768.26 C850.81,769.16 832.02,772.29 824.29,773.25 C816.53,774.01 797.52,775.11 793.48,775.10 C789.43,775.08 770.43,773.86 762.68,773.05 C754.95,772.03 736.18,768.78 732.24,767.86 C728.30,766.92 710.04,761.42 702.66,758.86 C695.35,756.12 677.76,748.69 674.12,746.89 C670.48,745.08 653.88,735.57 647.24,731.40 C640.72,727.07 625.18,715.83 622.03,713.25 C618.87,710.67 604.76,697.62 599.21,692.05 C593.79,686.35 581.09,671.86 578.58,668.63 C576.07,665.39 565.16,649.47 560.96,642.78 C556.92,635.99 547.70,618.99 545.95,615.26 C544.21,611.54 537.05,593.54 534.41,586.06 C531.95,578.52 526.68,559.85 525.79,555.82 C524.90,551.79 521.85,532.62 520.90,524.73 C520.15,516.82 519.08,497.42 519.09,493.29 C519.11,489.16 520.31,469.77 521.11,461.87 C522.10,453.99 525.29,434.83 526.20,430.81 C527.12,426.79 532.51,408.15 535.02,400.63 C537.71,393.17 544.99,375.22 546.75,371.50 C548.53,367.79 557.85,350.85 561.94,344.08 C566.18,337.42 577.20,321.57 579.73,318.35 C582.26,315.13 595.05,300.73 600.51,295.06 C606.10,289.53 620.30,276.58 623.47,274.01 C626.64,271.45 642.25,260.32 648.80,256.03 C655.46,251.90 672.13,242.50 675.78,240.72 C679.43,238.94 697.07,231.63 704.40,228.94 C711.79,226.43 730.09,221.04 734.04,220.13 C737.98,219.23 756.78,216.11 764.51,215.14 C772.26,214.38 791.27,213.28 795.32,213.29 Z" fill="none" stroke="rgb(252, 211, 88)" stroke-width="30.00" stroke-opacity="1.00" stroke-linejoin="round"/>
</g>
<g stroke-linecap="round" transform="translate(-257.00, -98.00)" id="Layer_2_Copy">
<path d="M748.55,452.72 Q762.06,444.57 775.57,436.41 Q778.86,434.42 781.44,438.68 Q804.91,477.58 828.39,516.48 Q830.97,520.75 827.67,522.74 Q814.16,530.90 800.65,539.05 Q797.35,541.04 794.78,536.78 Q771.30,497.88 747.82,458.98 Q745.25,454.72 748.55,452.72 Z" fill="none" stroke="rgb(252, 211, 88)" stroke-width="67.16" stroke-opacity="1.00" stroke-linejoin="round"/>
<path d="M815.78,483.49 L845.72,464.21" fill="none" stroke="rgb(252, 211, 88)" stroke-width="42.89" stroke-opacity="1.00" stroke-linejoin="round"/>
<path d="M765.78,515.86 L732.43,537.86" fill="none" stroke="rgb(252, 211, 88)" stroke-width="42.89" stroke-opacity="1.00" stroke-linejoin="round"/>
<path d="M703.19,531.18 Q712.60,547.21 722.02,563.25 Q724.62,567.69 720.18,570.29 Q677.87,595.14 635.55,619.98 Q631.11,622.59 628.50,618.15 Q619.09,602.11 609.68,586.07 Q607.07,581.64 611.51,579.03 Q653.83,554.19 696.14,529.34 Q700.58,526.74 703.19,531.18 Z" fill="none" stroke="rgb(252, 211, 88)" stroke-width="67.16" stroke-opacity="1.00" stroke-linejoin="round"/>
<path d="M881.34,461.74 Q871.41,445.19 861.48,428.63 Q858.83,424.22 863.24,421.57 Q907.15,395.23 951.05,368.89 Q955.46,366.25 958.11,370.66 Q968.04,387.21 977.97,403.77 Q980.62,408.18 976.21,410.83 Q932.31,437.17 888.40,463.51 Q883.99,466.15 881.34,461.74 Z" fill="none" stroke="rgb(252, 211, 88)" stroke-width="67.16" stroke-opacity="1.00" stroke-linejoin="round"/>
</g>
<g stroke-linecap="round" transform="translate(-257.00, -98.00)" id="Layer_5">
<path d="M741.27,923.31 C741.40,917.59 741.91,898.82 740.97,894.38 C739.98,889.99 736.05,882.09 732.74,877.91 C729.33,873.67 718.64,865.05 712.00,861.19 C709.77,859.90 665.51,837.48 651.48,829.87 C637.78,822.08 609.91,805.93 596.48,797.58 C590.14,793.44 578.21,785.25 572.62,781.19 C564.38,774.89 553.05,765.43 547.58,760.18 C544.11,756.83 532.52,744.27 527.74,738.80 C517.65,726.86 500.83,703.53 492.44,690.46 C488.37,683.85 480.68,670.52 477.07,663.80 C473.58,657.08 467.46,643.21 464.57,636.16 C461.81,629.03 456.65,614.53 454.29,607.23 C452.08,599.92 447.32,582.23 446.44,577.93 C444.98,570.51 442.48,555.48 441.44,547.88 C440.54,540.23 439.19,524.95 438.73,517.35 C438.28,506.03 438.27,498.39 438.71,486.88 C439.15,479.15 440.46,463.55 441.34,455.75 C442.38,448.12 444.91,433.40 446.41,426.31 C448.10,419.20 451.99,405.05 454.15,398.17 C457.30,388.96 471.14,353.79 477.55,337.91 C483.48,323.77 499.95,284.64 502.31,277.71 C504.99,269.77 508.60,254.48 509.53,247.13 C510.47,239.54 510.45,223.24 508.91,214.52 C508.10,210.09 505.71,201.48 504.12,197.30 C501.27,189.90 483.34,158.99 478.57,150.74" fill="none" stroke="rgb(252, 211, 88)" stroke-width="30.00" stroke-opacity="1.00" stroke-linejoin="round"/>
<path d="M1099.12,145.39 C1096.31,149.54 1089.62,159.39 1085.74,165.10 C1080.79,172.37 1070.23,188.03 1066.84,195.91 C1065.10,200.01 1062.58,208.29 1061.81,212.46 C1061.06,216.64 1060.54,224.90 1060.75,229.30 C1061.12,236.05 1064.46,250.24 1067.37,257.38 C1070.31,264.53 1077.58,277.09 1084.07,286.41 C1089.00,293.65 1098.19,307.81 1102.46,314.73 C1106.49,321.54 1114.23,335.35 1118.06,343.06 C1121.95,351.17 1128.58,366.93 1131.17,374.50 C1133.77,382.15 1143.21,418.05 1146.16,432.62 C1147.55,440.35 1149.75,455.62 1150.56,463.17 C1151.20,470.66 1152.05,485.64 1152.26,493.13 C1152.37,503.80 1151.80,515.51 1151.28,523.03 C1150.63,530.61 1148.91,545.94 1147.85,553.60 C1146.64,561.20 1143.04,580.07 1142.18,583.60 C1141.32,587.11 1135.87,605.50 1133.45,612.78 C1130.89,620.05 1125.37,634.42 1122.45,641.46 C1119.42,648.40 1114.43,659.15 1109.38,668.56 C1105.69,675.13 1097.91,688.11 1093.82,694.52 C1089.58,700.87 1080.65,713.37 1075.97,719.52 C1068.24,729.36 1044.69,754.73 1033.80,765.05 C1027.84,770.43 1015.45,780.85 1009.02,785.89 C996.48,795.22 974.15,809.81 955.29,821.23 C941.76,829.31 913.00,846.21 897.78,855.05 C890.31,859.42 879.51,868.01 875.20,872.99 C872.77,875.87 868.46,883.17 867.11,887.52 C865.84,891.81 865.54,897.36 865.58,904.68 C865.59,908.00 865.59,913.68 865.59,916.04" fill="none" stroke="rgb(252, 211, 88)" stroke-width="30.00" stroke-opacity="1.00" stroke-linejoin="round"/>
</g>
</svg>
