<svg id="svg" version="1.1" xmlns="http://www.w3.org/2000/svg" xmlns:xlink="http://www.w3.org/1999/xlink" width="400" height="328.53236098450316" viewBox="0, 0, 400,328.53236098450316"><g id="svgg"><path id="path0" d="M156.290 118.324 C 146.832 120.033,141.042 125.974,141.010 134.002 C 140.976 142.670,146.332 148.052,157.477 150.549 C 166.489 152.568,170.129 154.339,171.685 157.462 C 175.059 164.233,168.033 170.070,157.894 168.918 C 153.551 168.424,151.735 167.571,145.604 163.141 C 143.986 161.972,142.224 162.219,140.756 163.820 C 135.380 169.687,150.883 178.439,163.806 176.833 C 174.800 175.467,181.081 168.937,180.711 159.259 C 180.356 149.987,177.041 147.378,159.794 142.796 C 151.601 140.620,148.068 137.155,149.185 132.395 C 150.972 124.785,165.146 123.529,173.162 130.270 C 177.163 133.635,181.915 128.778,178.613 124.698 C 174.814 120.004,164.031 116.925,156.290 118.324 M270.337 118.455 C 260.449 120.723,255.181 127.564,256.391 136.565 C 257.309 143.397,262.285 147.942,271.159 150.053 C 282.582 152.771,285.629 154.257,287.306 157.929 C 290.259 164.393,282.652 170.310,273.044 169.025 C 268.713 168.445,266.165 167.267,261.357 163.621 C 259.345 162.095,257.649 162.154,256.140 163.800 C 250.140 170.348,269.117 179.469,281.975 176.218 C 292.601 173.530,298.094 165.414,295.647 156.016 C 293.974 149.595,289.920 146.602,279.310 143.956 C 268.002 141.136,264.823 139.163,264.360 134.676 C 263.409 125.465,279.369 122.554,288.527 130.268 C 291.043 132.387,294.102 131.423,294.905 128.258 C 296.386 122.423,280.564 116.110,270.337 118.455 M100.685 119.330 C 100.112 119.502,99.262 120.097,98.795 120.652 L 97.946 121.661 97.946 147.618 C 97.946 176.105,97.866 174.945,99.907 176.001 C 101.995 177.081,104.698 176.358,105.746 174.440 C 106.642 172.800,106.643 122.557,105.747 121.190 C 104.614 119.461,102.649 118.739,100.685 119.330 M216.379 119.338 C 215.064 119.723,213.730 121.289,213.451 122.776 C 212.911 125.657,213.484 173.333,214.072 174.440 C 215.534 177.189,219.873 177.102,221.309 174.296 C 222.112 172.726,222.237 122.410,221.442 121.192 C 220.342 119.509,218.322 118.770,216.379 119.338 " stroke="none" fill="#070605" fill-rule="evenodd"></path><path id="path1" d="M305.725 12.484 C 303.813 12.942,302.835 14.144,295.544 25.001 C 284.529 41.406,285.095 53.395,297.784 72.452 C 306.727 85.884,310.965 93.945,314.105 103.499 C 329.347 149.874,319.638 196.506,287.403 231.758 C 276.196 244.013,266.625 250.985,238.948 267.056 C 220.066 278.020,216.825 281.912,216.781 293.673 C 216.757 299.974,217.741 301.963,221.166 302.542 C 225.107 303.207,226.878 300.771,227.135 294.330 C 227.452 286.353,228.556 285.134,243.057 276.739 C 259.654 267.131,269.336 261.062,276.013 256.082 C 318.691 224.251,339.366 171.017,329.003 119.638 C 324.647 98.037,319.299 85.540,306.102 66.114 C 295.371 50.319,295.483 43.735,306.765 27.032 C 311.860 19.491,312.126 18.954,311.933 16.598 C 311.702 13.777,308.683 11.776,305.725 12.484 M79.929 15.129 C 77.638 15.644,76.104 17.932,76.321 20.514 C 76.439 21.923,77.064 23.229,80.308 28.834 C 89.831 45.291,89.736 51.908,79.630 75.924 C 66.749 106.537,63.990 114.996,62.141 129.552 C 56.902 170.798,69.558 209.648,98.578 241.407 C 108.890 252.693,126.156 264.101,155.046 278.720 C 170.229 286.402,171.529 287.847,171.555 297.074 C 171.575 303.975,172.454 305.614,176.305 305.923 C 179.956 306.215,181.461 304.198,181.823 298.522 C 182.744 284.093,178.978 279.125,159.748 269.404 C 134.378 256.579,117.582 245.824,108.334 236.483 C 78.937 206.792,65.763 163.987,73.638 123.747 C 75.661 113.406,78.074 106.611,88.743 81.195 C 96.131 63.594,97.621 58.186,97.615 48.982 C 97.609 39.365,94.872 32.035,86.047 18.004 C 84.544 15.615,82.352 14.584,79.929 15.129 M188.702 37.142 C 108.998 43.826,64.504 132.309,106.232 201.149 C 154.006 279.963,270.402 264.075,297.124 175.091 C 318.390 104.279,260.867 31.091,188.702 37.142 M209.203 48.308 C 245.189 53.673,274.396 78.463,286.003 113.491 C 288.267 120.322,288.297 120.121,285.150 119.122 C 282.086 118.149,279.194 117.672,276.335 117.669 C 275.115 117.668,274.117 117.604,274.117 117.529 C 274.117 117.453,274.354 116.463,274.645 115.329 C 275.762 110.970,274.919 108.405,269.292 99.039 C 262.780 88.200,258.079 85.224,250.616 87.218 C 248.245 87.851,227.622 99.777,216.434 106.986 C 209.111 111.704,206.654 118.100,209.505 125.028 L 210.438 127.296 209.656 127.904 C 208.233 129.011,207.816 128.626,204.445 123.090 C 195.834 108.948,189.684 108.072,173.927 118.742 C 172.356 119.806,172.318 119.805,168.283 118.619 C 162.803 117.010,154.874 117.656,149.712 120.133 C 137.957 125.776,137.496 142.092,148.928 147.924 C 149.606 148.270,150.244 148.687,150.345 148.850 C 150.446 149.014,144.302 152.810,136.691 157.287 C 118.475 168.001,117.040 169.351,116.739 176.060 C 116.531 180.702,120.224 188.932,126.093 196.904 C 129.877 202.044,137.213 203.877,142.975 201.122 C 146.079 199.637,172.991 183.830,175.778 181.854 C 180.667 178.388,182.387 173.004,180.918 165.769 C 180.729 164.840,180.835 164.648,181.967 163.879 C 183.679 162.716,183.800 162.755,185.135 164.918 C 190.903 174.263,197.772 175.180,209.328 168.149 C 213.317 165.721,213.311 165.718,213.311 170.364 C 213.311 176.764,217.346 179.148,221.200 175.026 L 222.021 174.147 222.186 159.136 C 222.292 149.442,222.466 144.130,222.679 144.140 C 222.859 144.148,223.880 144.424,224.947 144.753 C 230.299 146.403,233.216 145.442,245.879 137.857 C 255.291 132.220,256.284 131.768,255.900 133.295 C 255.521 134.805,256.339 138.800,257.521 141.214 C 260.141 146.566,264.170 148.843,275.760 151.518 C 283.796 153.374,287.565 156.338,287.585 160.818 C 287.625 169.479,272.081 171.799,263.089 164.475 C 259.458 161.517,256.695 161.481,255.201 164.371 C 251.311 171.894,271.084 180.173,283.434 176.193 C 286.327 175.260,286.297 175.173,284.625 179.685 C 259.276 248.089,169.970 263.275,123.169 207.139 C 115.195 197.574,104.990 177.917,106.159 174.375 C 106.371 173.733,106.470 173.023,106.379 172.799 C 106.285 172.565,106.204 172.643,106.189 172.983 C 106.069 175.699,102.573 177.379,99.907 176.001 C 97.866 174.945,97.946 176.105,97.946 147.618 L 97.946 121.661 98.791 120.656 C 100.955 118.084,105.193 118.940,106.151 122.143 C 106.393 122.948,106.439 122.979,106.463 122.351 C 106.479 121.936,105.975 121.041,105.312 120.307 L 104.133 119.002 105.178 115.623 C 119.231 70.171,163.539 41.499,209.203 48.308 M167.790 118.806 C 177.372 121.355,182.324 126.744,178.394 130.346 C 176.664 131.932,175.111 131.909,173.162 130.270 C 170.700 128.200,164.765 125.837,162.215 125.913 C 161.666 125.929,162.271 126.134,163.561 126.368 C 167.128 127.016,167.019 126.877,167.080 130.843 C 167.141 134.829,167.517 135.807,171.535 142.438 C 174.330 147.050,174.331 147.138,171.569 145.964 C 170.394 145.464,168.028 144.678,166.311 144.217 C 164.593 143.755,161.636 142.963,159.738 142.456 C 153.299 140.736,150.267 138.623,149.569 135.370 C 148.546 130.601,151.990 127.033,158.415 126.204 C 160.112 125.985,160.141 125.967,158.862 125.926 C 154.490 125.789,150.037 128.765,149.185 132.395 C 148.068 137.155,151.601 140.620,159.794 142.796 C 177.041 147.378,180.356 149.987,180.711 159.259 C 181.081 168.937,174.800 175.467,163.806 176.833 C 150.883 178.439,135.380 169.687,140.756 163.820 C 142.224 162.219,143.986 161.972,145.604 163.141 C 151.735 167.571,153.551 168.424,157.894 168.918 C 168.033 170.070,175.059 164.233,171.685 157.462 C 170.129 154.339,166.489 152.568,157.477 150.549 C 145.047 147.764,139.083 140.358,141.351 130.522 C 143.489 121.246,156.045 115.681,167.790 118.806 M283.385 118.937 C 290.471 120.802,295.719 125.050,294.905 128.258 C 294.102 131.423,291.043 132.387,288.527 130.268 C 285.973 128.117,280.075 125.823,277.356 125.924 C 276.474 125.957,276.583 126.015,277.896 126.212 C 283.743 127.092,289.959 130.521,290.374 133.096 C 291.088 137.530,291.432 147.399,290.884 147.738 C 290.706 147.848,289.928 147.567,289.155 147.114 C 287.053 145.883,283.859 144.763,278.811 143.487 C 268.962 140.998,266.073 139.421,264.910 135.898 C 263.395 131.305,267.067 127.068,273.295 126.223 L 275.596 125.912 273.360 126.051 C 267.642 126.408,263.878 130.015,264.360 134.676 C 264.823 139.163,268.002 141.136,279.310 143.956 C 289.920 146.602,293.974 149.595,295.647 156.016 C 298.094 165.414,292.601 173.530,281.975 176.218 C 269.117 179.469,250.140 170.348,256.140 163.800 C 257.649 162.154,259.345 162.095,261.357 163.621 C 266.165 167.267,268.713 168.445,273.044 169.025 C 282.652 170.310,290.259 164.393,287.306 157.929 C 285.629 154.257,282.582 152.771,271.159 150.053 C 260.428 147.500,255.294 141.216,256.347 131.922 C 257.520 121.555,270.202 115.465,283.385 118.937 M220.127 119.840 C 222.131 121.109,222.033 119.567,221.900 147.728 C 221.767 175.840,221.861 174.591,219.787 175.856 C 217.770 177.085,215.131 176.431,214.072 174.440 C 213.484 173.333,212.911 125.657,213.451 122.776 C 214.027 119.707,217.503 118.178,220.127 119.840 M106.648 147.740 C 106.647 161.298,106.688 166.893,106.738 160.172 C 106.787 153.452,106.787 142.359,106.738 135.521 C 106.688 128.684,106.648 134.182,106.648 147.740 " stroke="none" fill="#fbd45c" fill-rule="evenodd"></path><path id="path2" d="M0.000 164.339 L 0.000 328.677 200.000 328.677 L 400.000 328.677 400.000 164.339 L 400.000 0.000 200.000 0.000 L 0.000 0.000 0.000 164.339 M309.778 13.160 C 311.445 14.173,312.111 15.798,311.964 18.497 C 311.933 19.079,310.046 22.176,306.765 27.032 C 295.483 43.735,295.371 50.319,306.102 66.114 C 319.299 85.540,324.647 98.037,329.003 119.638 C 339.366 171.017,318.691 224.251,276.013 256.082 C 269.336 261.062,259.654 267.131,243.057 276.739 C 228.556 285.134,227.452 286.353,227.135 294.330 C 226.878 300.771,225.107 303.207,221.166 302.542 C 217.741 301.963,216.757 299.974,216.781 293.673 C 216.825 281.912,220.066 278.020,238.948 267.056 C 266.625 250.985,276.196 244.013,287.403 231.758 C 319.638 196.506,329.347 149.874,314.105 103.499 C 310.965 93.945,306.727 85.884,297.784 72.452 C 285.095 53.395,284.529 41.406,295.544 25.001 C 304.547 11.595,305.668 10.662,309.778 13.160 M84.031 15.829 C 85.204 16.532,85.752 17.352,90.156 24.990 C 95.850 34.865,97.610 40.525,97.615 48.982 C 97.621 58.186,96.131 63.594,88.743 81.195 C 78.074 106.611,75.661 113.406,73.638 123.747 C 65.763 163.987,78.937 206.792,108.334 236.483 C 117.582 245.824,134.378 256.579,159.748 269.404 C 178.978 279.125,182.744 284.093,181.823 298.522 C 181.461 304.198,179.956 306.215,176.305 305.923 C 172.454 305.614,171.575 303.975,171.555 297.074 C 171.529 287.847,170.229 286.402,155.046 278.720 C 126.156 264.101,108.890 252.693,98.578 241.407 C 69.558 209.648,56.902 170.798,62.141 129.552 C 63.990 114.996,66.749 106.537,79.630 75.924 C 89.736 51.908,89.831 45.291,80.308 28.834 C 77.064 23.229,76.439 21.923,76.321 20.514 C 75.956 16.154,80.236 13.553,84.031 15.829 M207.724 37.618 C 281.024 46.386,323.431 126.600,290.009 193.262 C 250.713 271.642,141.063 271.546,101.802 193.096 C 63.925 117.414,125.027 27.725,207.724 37.618 M187.675 47.687 C 148.736 51.603,116.852 77.865,105.172 115.643 L 104.121 119.042 105.167 120.122 C 105.743 120.716,106.347 121.774,106.509 122.474 C 107.071 124.894,106.894 171.477,106.315 173.700 L 105.809 175.641 107.207 179.439 C 119.099 211.759,148.624 235.820,182.416 240.730 C 226.137 247.082,269.175 221.377,284.625 179.685 C 286.297 175.173,286.327 175.260,283.434 176.193 C 271.084 180.173,251.311 171.894,255.201 164.371 C 256.695 161.481,259.458 161.517,263.089 164.475 C 272.081 171.799,287.625 169.479,287.585 160.818 C 287.565 156.338,283.796 153.374,275.760 151.518 C 264.170 148.843,260.141 146.566,257.521 141.214 C 256.339 138.800,255.521 134.805,255.900 133.295 C 256.284 131.768,255.291 132.220,245.879 137.857 C 233.216 145.442,230.299 146.403,224.947 144.753 C 223.880 144.424,222.859 144.148,222.679 144.140 C 222.466 144.130,222.292 149.442,222.186 159.136 L 222.021 174.147 221.200 175.026 C 217.346 179.148,213.311 176.764,213.311 170.364 C 213.311 165.718,213.317 165.721,209.328 168.149 C 197.772 175.180,190.903 174.263,185.135 164.918 C 183.800 162.755,183.679 162.716,181.967 163.879 C 180.835 164.648,180.729 164.840,180.918 165.769 C 182.387 173.004,180.667 178.388,175.778 181.854 C 172.991 183.830,146.079 199.637,142.975 201.122 C 137.213 203.877,129.877 202.044,126.093 196.904 C 120.224 188.932,116.531 180.702,116.739 176.060 C 117.040 169.351,118.475 168.001,136.691 157.287 C 144.302 152.810,150.446 149.014,150.345 148.850 C 150.244 148.687,149.606 148.270,148.928 147.924 C 137.496 142.092,137.957 125.776,149.712 120.133 C 154.874 117.656,162.803 117.010,168.283 118.619 C 172.318 119.805,172.356 119.806,173.927 118.742 C 189.684 108.072,195.834 108.948,204.445 123.090 C 207.816 128.626,208.233 129.011,209.656 127.904 L 210.438 127.296 209.505 125.028 C 206.654 118.100,209.111 111.704,216.434 106.986 C 227.622 99.777,248.245 87.851,250.616 87.218 C 258.079 85.224,262.780 88.200,269.292 99.039 C 274.919 108.405,275.762 110.970,274.645 115.329 C 274.354 116.463,274.117 117.453,274.117 117.529 C 274.117 117.604,275.115 117.668,276.335 117.669 C 279.194 117.672,282.086 118.149,285.150 119.122 C 288.297 120.121,288.267 120.322,286.003 113.491 C 271.949 71.077,230.554 43.374,187.675 47.687 M158.415 126.204 C 151.990 127.033,148.546 130.601,149.569 135.370 C 150.267 138.623,153.299 140.736,159.738 142.456 C 161.636 142.963,164.593 143.755,166.311 144.217 C 168.028 144.678,170.394 145.464,171.569 145.964 C 174.331 147.138,174.330 147.050,171.535 142.438 C 167.517 135.807,167.141 134.829,167.080 130.843 C 167.036 128.019,166.931 127.368,166.476 127.113 C 165.939 126.813,161.216 125.875,160.559 125.938 C 160.378 125.955,159.413 126.075,158.415 126.204 M273.295 126.260 C 267.122 126.999,263.389 131.289,264.910 135.898 C 266.073 139.421,268.962 140.998,278.811 143.487 C 283.859 144.763,287.053 145.883,289.155 147.114 C 289.928 147.567,290.706 147.848,290.884 147.738 C 291.432 147.399,291.088 137.530,290.374 133.096 C 289.777 129.393,279.958 125.463,273.295 126.260 " stroke="none" fill="#fbfbfb" fill-rule="evenodd"></path></g></svg>