<?xml version="1.0" encoding="UTF-8"?>
<svg xmlns="http://www.w3.org/2000/svg" version="1.1" viewBox="0 0 1200 1200">
  <defs>
    <style>
      .cls-1 {
        fill: #3c8ad0;
      }
    </style>
  </defs>
  <!-- Generator: Adobe Illustrator 28.7.1, SVG Export Plug-In . SVG Version: 1.2.0 Build 142)  -->
  <g>
    <g id="Layer_1">
      <path class="cls-1" d="M600,25c77.6,0,152.9,15.2,223.8,45.2,34.1,14.4,66.9,32.2,97.7,53,30.5,20.6,59.1,44.2,85.1,70.2,26,26,49.7,54.7,70.2,85.1,20.8,30.7,38.6,63.6,53,97.7,30,70.9,45.2,146.2,45.2,223.8s-15.2,152.9-45.2,223.8c-14.4,34.1-32.2,66.9-53,97.7-20.6,30.5-44.2,59.1-70.2,85.1-26,26-54.7,49.7-85.1,70.2-30.7,20.8-63.6,38.6-97.7,53-70.9,30-146.2,45.2-223.8,45.2s-152.9-15.2-223.8-45.2c-34.1-14.4-66.9-32.2-97.7-53-30.5-20.6-59.1-44.2-85.1-70.2-26-26-49.7-54.7-70.2-85.1-20.8-30.7-38.6-63.6-53-97.7-30-70.9-45.2-146.2-45.2-223.8s15.2-152.9,45.2-223.8c14.4-34.1,32.2-66.9,53-97.7,20.6-30.5,44.2-59.1,70.2-85.1,26-26,54.7-49.7,85.1-70.2,30.7-20.8,63.6-38.6,97.7-53,70.9-30,146.2-45.2,223.8-45.2M600,0C268.6,0,0,268.6,0,600s268.6,600,600,600,600-268.6,600-600S931.4,0,600,0h0Z"/>
      <g>
        <path class="cls-1" d="M471.9,709.5v-136.6c9.4,0,17.1-7.7,17.1-17.1v-17.1h-34.2s-51.2,0-51.2,0v17.1c0,9.4,7.7,17.1,17.1,17.1v136.6h51.2Z"/>
        <path class="cls-1" d="M574.4,709.5v-136.6c9.4,0,17.1-7.7,17.1-17.1v-17.1h-51.2s-34.2,0-34.2,0v17.1c0,9.4,7.7,17.1,17.1,17.1v136.6h51.2Z"/>
        <path class="cls-1" d="M676.8,709.5v-136.6c9.4,0,17.1-7.7,17.1-17.1v-17.1h-85.4v17.1c0,9.4,7.7,17.1,17.1,17.1v136.6h51.2Z"/>
        <path class="cls-1" d="M779.3,709.5v-136.6c9.4,0,17.1-7.7,17.1-17.1v-17.1h-85.4v17.1c0,9.4,7.7,17.1,17.1,17.1v136.6h51.2Z"/>
        <path class="cls-1" d="M796.4,760.8h-17.1v-34.2h-358.6v34.2h-17.1c-9.4,0-17.1,7.7-17.1,17.1v17.1c0,9.4,7.7,17.1,17.1,17.1h392.7c9.4,0,17.1-7.7,17.1-17.1v-17.1c0-9.4-7.7-17.1-17.1-17.1h0Z"/>
        <path class="cls-1" d="M403,521.7h394.1c9.1,0,16.4-7.6,16.4-17.1s-4.2-13.3-10.3-15.8l-195.1-118.4c-5.1-3.1-11.4-3.1-16.5,0l-196.9,119.5c-6.4,3.9-9.5,11.8-7.6,19.2,1.9,7.4,8.4,12.6,15.8,12.6h0ZM600,425.2c20.3,0,36.7,16.4,36.7,36.7s-16.4,36.7-36.7,36.7-36.7-16.4-36.7-36.7c0-20.3,16.4-36.7,36.7-36.7Z"/>
      </g>
    </g>
  </g>
</svg>