<?xml version="1.0" encoding="UTF-8"?>
<svg xmlns="http://www.w3.org/2000/svg" version="1.1" viewBox="0 0 1200 1200">
  <defs>
    <style>
      .cls-1 {
        fill: #549a00;
      }
    </style>
  </defs>
  <!-- Generator: Adobe Illustrator 28.7.1, SVG Export Plug-In . SVG Version: 1.2.0 Build 142)  -->
  <g>
    <g id="Layer_1">
      <path class="cls-1" d="M761.2,575v215c0,6.5-2.6,12.8-7.2,17.4-4.6,4.6-10.9,7.2-17.4,7.2h-273.2c-6.5,0-12.8-2.6-17.4-7.2-4.6-4.6-7.2-10.9-7.2-17.4v-215c0-6.5,2.6-12.8,7.2-17.4,4.6-4.6,10.9-7.2,17.4-7.2h26.6v-55c0-29.2,11.6-57.1,32.2-77.8,20.6-20.6,48.6-32.2,77.8-32.2s57.1,11.6,77.8,32.2c20.6,20.6,32.2,48.6,32.2,77.8v55h26.6,0c6.5,0,12.8,2.6,17.4,7.2,4.6,4.6,7.2,10.9,7.2,17.4h0ZM675.5,495.3c0-20-8-39.2-22.1-53.4-14.2-14.2-33.4-22.1-53.4-22.1s-39.2,8-53.4,22.1c-14.2,14.2-22.1,33.4-22.1,53.4v55h151v-55Z"/>
      <path class="cls-1" d="M600,25c77.6,0,152.9,15.2,223.8,45.2,34.1,14.4,66.9,32.2,97.7,53,30.5,20.6,59.1,44.2,85.1,70.2,26,26,49.7,54.7,70.2,85.1,20.8,30.7,38.6,63.6,53,97.7,30,70.9,45.2,146.2,45.2,223.8s-15.2,152.9-45.2,223.8c-14.4,34.1-32.2,66.9-53,97.7-20.6,30.5-44.2,59.1-70.2,85.1-26,26-54.7,49.7-85.1,70.2-30.7,20.8-63.6,38.6-97.7,53-70.9,30-146.2,45.2-223.8,45.2s-152.9-15.2-223.8-45.2c-34.1-14.4-66.9-32.2-97.7-53-30.5-20.6-59.1-44.2-85.1-70.2-26-26-49.7-54.7-70.2-85.1-20.8-30.7-38.6-63.6-53-97.7-30-70.9-45.2-146.2-45.2-223.8s15.2-152.9,45.2-223.8c14.4-34.1,32.2-66.9,53-97.7,20.6-30.5,44.2-59.1,70.2-85.1,26-26,54.7-49.7,85.1-70.2,30.7-20.8,63.6-38.6,97.7-53,70.9-30,146.2-45.2,223.8-45.2M600,0C268.6,0,0,268.6,0,600s268.6,600,600,600,600-268.6,600-600S931.4,0,600,0h0Z"/>
    </g>
  </g>
</svg>