<?xml version="1.0" encoding="UTF-8"?><svg id="Layer_3" xmlns="http://www.w3.org/2000/svg" viewBox="0 0 330 330"><defs><style>.cls-1,.cls-2{fill:#fbd45c;}.cls-2{fill-rule:evenodd;}</style></defs><g id="ISIS_Orb"><g id="Horns"><path class="cls-2" d="M55.55,13.25c1.9.5,2.9,1.7,10.2,12.5,11,16.4,10.4,28.4-2.2,47.5-8.9,13.4-13.2,21.5-16.3,31-15.2,46.4-5.5,93,26.7,128.3,11.2,12.3,20.8,19.2,48.5,35.3,18.9,11,22.1,14.9,22.2,26.6,0,6.3-1,8.3-4.4,8.9-3.9.7-5.7-1.8-6-8.2-.3-8-1.4-9.2-15.9-17.6-16.6-9.6-26.3-15.7-33-20.7-42.7-31.8-63.4-85.1-53-136.4,4.4-21.6,9.7-34.1,22.9-53.5,10.7-15.8,10.6-22.4-.7-39.1-5.1-7.5-5.4-8.1-5.2-10.4.2-2.8,3.2-4.8,6.2-4.1"/><path class="cls-2" d="M274.45,13.25c-1.9.5-2.9,1.7-10.2,12.5-11,16.4-10.4,28.4,2.2,47.5,8.9,13.4,13.2,21.5,16.3,31,15.2,46.4,5.5,93-26.7,128.3-11.2,12.3-20.8,19.2-48.5,35.3-18.9,11-22.1,14.9-22.2,26.6,0,6.3,1,8.3,4.4,8.9,3.9.7,5.7-1.8,6-8.2.3-8,1.4-9.2,15.9-17.6,16.6-9.6,26.3-15.7,33-20.7,42.7-31.8,63.4-85.1,53-136.4-4.4-21.6-9.7-34.1-22.9-53.5-10.7-15.8-10.6-22.4.7-39.1,5.1-7.5,5.4-8.1,5.2-10.4-.2-2.8-3.2-4.8-6.2-4.1"/></g><path id="Inner_Circle" class="cls-2" d="M165,34.27c-61.21,0-110.83,49.62-110.83,110.83s49.62,110.83,110.83,110.83,110.83-49.62,110.83-110.83-49.62-110.83-110.83-110.83ZM165,245.37c-55.38,0-100.27-44.89-100.27-100.27s44.89-100.27,100.27-100.27,100.27,44.89,100.27,100.27-44.89,100.27-100.27,100.27Z"/></g><g id="Spacecraft"><rect id="Arm" class="cls-1" x="108.69" y="135.82" width="111.91" height="17.28" transform="translate(-31.78 47.54) rotate(-15)"/><rect id="Body" class="cls-1" x="145.47" y="111.66" width="38.81" height="67.25" rx="12" ry="12" transform="translate(-31.99 47.62) rotate(-15)"/><rect id="R_Wing" class="cls-1" x="198.03" y="98.87" width="41.37" height="62.32" rx="12" ry="12" transform="translate(149.72 374.95) rotate(-105)"/><rect id="L_Wing" class="cls-1" x="89.93" y="127.84" width="41.37" height="62.32" rx="12" ry="12" transform="translate(-14.34 306.99) rotate(-105)"/></g></svg>