<?xml version="1.0" encoding="UTF-8"?>
<svg xmlns="http://www.w3.org/2000/svg" version="1.1" viewBox="0 0 400 328.5">
  <defs>
    <style>
      .cls-1 {
        fill: #fff;
        fill-rule: evenodd;
      }

      .cls-2 {
        fill: #955a4a;
      }

      .cls-3 {
        display: none;
      }
    </style>
  </defs>
  <!-- Generator: Adobe Illustrator 28.7.1, SVG Export Plug-In . SVG Version: 1.2.0 Build 142)  -->
  <g>
    <g id="Layer_2" class="cls-3">
      <rect width="400" height="328.5"/>
    </g>
    <g id="Layer_1">
      <g>
        <path class="cls-2" d="M156.3,118.4c0,0,.1,0,.2,0v-.2c-.1,0-.2,0-.2,0v.2Z"/>
        <path class="cls-2" d="M159.7,269.4c-25.4-12.8-42.2-23.6-51.4-32.9-29.4-29.7-42.6-72.5-34.7-112.7,2-10.3,4.4-17.1,15.1-42.6,7.4-17.6,8.9-23,8.9-32.2s-2.7-16.9-11.6-31c-1.5-2.4-3.7-3.4-6.1-2.9-2.3.5-3.8,2.8-3.6,5.4.1,1.4.7,2.7,4,8.3,9.5,16.5,9.4,23.1-.7,47.1-12.9,30.6-15.6,39.1-17.5,53.6-5.2,41.2,7.4,80.1,36.4,111.9,10.3,11.3,27.6,22.7,56.5,37.3,15.2,7.7,16.5,9.1,16.5,18.4s.9,8.5,4.8,8.8c3.7.3,5.2-1.7,5.5-7.4.9-14.4-2.8-19.4-22.1-29.1Z"/>
        <path class="cls-2" d="M164.2,178.8c-1.1.1-2.3.2-3.4.2-9.3,0-19.5-4.2-22.3-9.7-1.2-2.4-.9-4.9.9-6.9,2.1-2.4,5-2.8,7.5-.9,5.9,4.4,7.6,5,11.3,5.4,5.1.6,9.7-.8,11.6-3.6,1-1.5,1.1-3.2.2-5-1.2-2.4-4.7-4-12.8-5.8-3.1-.7-5.7-1.6-8-2.7-2.1,1.4-6.9,4.3-12.5,7.5-18.2,10.7-19.7,12.1-20,18.8-.2,4.6,3.5,12.9,9.4,20.8,3.8,5.1,11.1,7,16.9,4.2,3.1-1.5,30-17.3,32.8-19.3,4.3-3.1,6.2-7.7,5.5-13.6-2.7,5.8-8.6,9.6-16.9,10.6Z"/>
        <path class="cls-2" d="M297.1,175c21.3-70.8-36.3-144-108.4-137.9-79.7,6.7-124.2,95.2-82.5,164,47.8,78.8,164.2,62.9,190.9-26.1ZM122.8,207c-6.7-8-14.9-23-16.7-29.8-1.1.8-2.4,1.3-4,1.3h0c-1.1,0-2.1-.3-3.1-.7h-.2q-2.8-1.6-2.8-30.2v-26.7l1.3-1.6h0c.3-.4,1.5-1.5,2.7-1.9.6-.2,1.3-.3,1.9-.3s1.3.1,2,.3l.6-2c14.1-45.5,58.4-74.1,104-67.3l.6.2c36,5.4,65.2,30.2,76.8,65.2.8,2.5,1.4,4,1.5,4.9,3.1,1.2,5.7,2.8,7.3,4.5,2.3,2.4,2.4,4.5,2,5.9-.5,2.2-1.9,3.8-3.8,4.4-.9.3-1.8.3-2.7.2.5,3.6.9,10.2.7,13.1,3.5,2.2,5.4,5.1,6.5,9.2,1.3,5.2.5,10.1-2.3,14.2-2.3,3.4-5.8,6-10.2,7.6-.2.6-.5,1.2-.8,2.1-25.3,68.4-114.7,83.6-161.5,27.5Z"/>
        <path class="cls-2" d="M269.8,116.6h0c1.5-.3,3-.5,4.5-.5,0-.2.1-.5.2-.7,1.1-4.4.3-6.9-5.4-16.3-6.5-10.8-11.2-13.8-18.7-11.8-2.4.6-23,12.6-34.2,19.8-7.3,4.7-9.8,11.1-6.9,18l.9,2.3-.8.6c-1.4,1.1-1.8.7-5.2-4.8-8.6-14.1-14.8-15-30.4-4.3,2.7,1.2,5,2.8,6.5,4.6,2.4,3,1.7,6.5-.2,8.4-1.8,1.8-5.1,2.5-8.1,0-1.5-1.3-3.2-2.2-4.9-2.8,0,.5,0,1.2,0,2,0,4,.4,5,4.5,11.6.6,1,1.1,1.8,1.4,2.4,7.8,3.5,9.5,7.3,9.8,14.2,0,1.4,0,2.8-.2,4.1.9-.5,1.2,0,2.3,1.6,5.8,9.3,12.6,10.3,24.2,3.2,1.1-.7,2-.9,2.6-.8-.1-3.8-.2-9.5-.3-18,0-2.5-.3-24.6.1-26.9.5-2.2,2.3-4.4,4.3-5v.2c0,0,0-.2,0-.2,2.9-.7,5.7.4,7.3,2.8.4.5.9,1.3.9,24.3.3,0,.6.2.8.2,5.4,1.6,8.3.7,20.9-6.9,4.6-2.7,7.2-4.2,8.6-4.9.5-8,6.2-14.1,15.6-16.2Z"/>
        <path class="cls-2" d="M328.9,119.7c-4.4-21.6-9.7-34.1-22.9-53.5-10.7-15.8-10.6-22.4.7-39.1,5.1-7.5,5.4-8.1,5.2-10.4-.2-2.8-3.2-4.8-6.2-4.1h0c-1.9.4-2.9,1.6-10.2,12.4-11,16.4-10.4,28.4,2.2,47.5,8.9,13.4,13.2,21.5,16.3,31,15.2,46.4,5.5,93-26.7,128.3-11.2,12.3-20.8,19.2-48.5,35.3-18.9,11-22.1,14.9-22.2,26.6,0,6.3,1,8.3,4.4,8.9,3.9.7,5.7-1.8,6-8.2.3-8,1.4-9.2,15.9-17.6,16.6-9.6,26.3-15.7,33-20.7,42.7-31.8,63.4-85.1,53-136.4Z"/>
      </g>
      <g>
        <path class="cls-1" d="M270.3,118.5c-9.9,2.3-15.2,9.1-13.9,18.1.9,6.8,5.9,11.4,14.8,13.5,11.4,2.7,14.5,4.2,16.1,7.9,3,6.5-4.7,12.4-14.3,11.1-4.3-.6-6.9-1.8-11.7-5.4-2-1.5-3.7-1.5-5.2.2-6,6.5,13,15.7,25.8,12.4,10.6-2.7,16.1-10.8,13.7-20.2-1.7-6.4-5.7-9.4-16.3-12.1-11.3-2.8-14.5-4.8-15-9.3-1-9.2,15-12.1,24.2-4.4,2.5,2.1,5.6,1.2,6.4-2,1.5-5.8-14.3-12.1-24.6-9.8"/>
        <path class="cls-1" d="M216.4,119.3c-1.3.4-2.6,2-2.9,3.4-.5,2.9,0,50.6.6,51.7,1.5,2.7,5.8,2.7,7.2-.1.8-1.6.9-51.9.1-53.1-1.1-1.7-3.1-2.4-5.1-1.9"/>
        <path class="cls-1" d="M156.3,118.3c-9.5,1.7-15.2,7.7-15.3,15.7,0,8.7,5.3,14.1,16.5,16.5,9,2,12.7,3.8,14.2,6.9,3.4,6.8-3.7,12.6-13.8,11.5-4.3-.5-6.2-1.3-12.3-5.8-1.6-1.2-3.4-.9-4.8.7-5.4,5.9,10.1,14.6,23.1,13,11-1.4,17.3-7.9,16.9-17.6-.4-9.3-3.7-11.9-20.9-16.5-8.2-2.2-11.7-5.6-10.6-10.4,1.8-7.6,16-8.9,24-2.1,4,3.4,8.8-1.5,5.5-5.6-3.8-4.7-14.6-7.8-22.3-6.4"/>
        <path class="cls-1" d="M100.7,119.3c-.6.2-1.4.8-1.9,1.3l-.8,1v26c0,28.5,0,27.3,2,28.4,2.1,1.1,4.8.4,5.8-1.6.9-1.6.9-51.9,0-53.2-1.1-1.7-3.1-2.5-5.1-1.9Z"/>
      </g>
    </g>
  </g>
</svg>